<svg xmlns="http://www.w3.org/2000/svg" width="633" height="633" style=""><rect id="backgroundrect" width="100%" height="100%" x="0" y="0" fill="none" stroke="none"/>
    
    
<g class="currentLayer" style=""><title>Layer 1</title><g class=""><path d="M333.4747228075988,360.1047670582826 h79.84045775939305 c22.70344770409281,0 37.08229791668492,-12.486896237251045 37.08229791668492,-32.54160837586636 c0,-18.919539753410675 -14.378850212592113,-32.54160837586636 -37.08229791668492,-32.54160837586636 h-79.84045775939305 c-2.6487355654774953,0 -4.919080335886775,2.270344770409282 -4.919080335886775,4.540689540818562 V355.56407751746406 c0.3783907950682137,2.6487355654774953 2.270344770409282,4.540689540818562 4.919080335886775,4.540689540818562 zM333.4747228075988,489.1360281765434 h82.48919332487054 c25.352183269570304,0 40.487815072298844,-12.865287032319259 40.487815072298844,-35.56873473641207 c0,-19.6763213435471 -14.378850212592113,-35.56873473641207 -40.487815072298844,-35.56873473641207 h-82.48919332487054 c-2.6487355654774953,0 -4.919080335886775,2.270344770409282 -4.919080335886775,4.540689540818562 V484.21694784065664 c0.3783907950682137,3.027126360545708 2.270344770409282,4.919080335886775 4.919080335886775,4.919080335886775 z" class="st0" id="svg_1"/><path d="M625.5924166002596,1.3902933336162278 l-236.11585612256522,235.3590745324288 h38.595861096957776 c60.164136415845945,0 95.73287115225801,37.83907950682135 95.73287115225801,79.08367616925662 c0,32.54160837586636 -21.946666113956383,56.38022846516381 -45.40689540818562,66.97517072707379 c-3.783907950682135,1.5135631802728537 -3.783907950682135,6.811034311227843 0.3783907950682137,8.324597491500697 c27.24413724491137,10.594942261909981 46.54206779339026,38.97425189202599 46.54206779339026,72.27264185802878 c0,46.92045858845847 -31.40643599066172,84.38114730021161 -92.32735399664409,84.38114730021161 h-167.24873142015036 c-2.6487355654774953,0 -4.919080335886775,-2.270344770409282 -4.919080335886775,-4.540689540818562 v-178.22206447712855 l-259.1976946217262,258.0625222365216 c-3.4055171556139214,3.4055171556139214 -1.1351723852046411,9.459769876705337 3.783907950682135,9.459769876705337 h623.2096394773477 c2.270344770409282,0 4.162298745750348,-1.8919539753410675 4.162298745750348,-4.162298745750348 V4.795810489230121 c1.1351723852046411,-4.162298745750348 -4.162298745750348,-6.43264351615963 -7.189425106296056,-3.4055171556139214 z" class="st0" id="svg_2"/></g></g></svg>